# Blender 5.2.0 LTS
# www.blender.org
mtllib box_50x50x20.mtl
o Cube
v -0.250000 -0.100000 0.250000
v -0.250000 0.100000 0.250000
v -0.250000 -0.100000 -0.250000
v -0.250000 0.100000 -0.250000
v 0.250000 -0.100000 0.250000
v 0.250000 0.100000 0.250000
v 0.250000 -0.100000 -0.250000
v 0.250000 0.100000 -0.250000
v -0.230000 -0.080000 0.230000
v -0.230000 0.100000 0.230000
v -0.230000 -0.080000 -0.230000
v -0.230000 0.100000 -0.230000
v 0.230000 -0.080000 0.230000
v 0.230000 0.100000 0.230000
v 0.230000 -0.080000 -0.230000
v 0.230000 0.100000 -0.230000
vn -1.0000 -0.0000 -0.0000
vn -0.0000 -0.0000 -1.0000
vn 1.0000 -0.0000 -0.0000
vn -0.0000 -0.0000 1.0000
vn -0.0000 -1.0000 -0.0000
vn -0.0000 1.0000 -0.0000
vt 0.375000 0.000000
vt 0.625000 0.000000
vt 0.625000 0.250000
vt 0.375000 0.250000
vt 0.625000 0.500000
vt 0.375000 0.500000
vt 0.625000 0.750000
vt 0.375000 0.750000
vt 0.625000 1.000000
vt 0.375000 1.000000
vt 0.125000 0.500000
vt 0.125000 0.750000
s 0
usemtl Material.001
f 1/1/1 2/2/1 4/3/1 3/4/1
f 3/4/2 4/3/2 8/5/2 7/6/2
f 7/6/3 8/5/3 6/7/3 5/8/3
f 5/8/4 6/7/4 2/9/4 1/10/4
f 3/11/5 7/6/5 5/8/5 1/12/5
f 9/1/3 11/4/3 12/3/3 10/2/3
f 11/4/4 15/6/4 16/5/4 12/3/4
f 15/6/1 13/8/1 14/7/1 16/5/1
f 13/8/2 9/10/2 10/9/2 14/7/2
f 11/11/6 9/12/6 13/8/6 15/6/6
f 4/3/6 2/2/6 10/2/6 12/3/6
f 8/5/6 4/3/6 12/3/6 16/5/6
f 6/7/6 8/5/6 16/5/6 14/7/6
f 2/9/6 6/7/6 14/7/6 10/9/6
